<svg xmlns="http://www.w3.org/2000/svg" xmlns:xlink="http://www.w3.org/1999/xlink" width="500" zoomAndPan="magnify" viewBox="0 0 375 374.999991" height="500" preserveAspectRatio="xMidYMid meet" version="1.0"><defs><clipPath id="1671268559"><path d="M 219 32.339844 L 369.300781 32.339844 L 369.300781 332.339844 L 219 332.339844 Z M 219 32.339844 " clip-rule="nonzero"/></clipPath><clipPath id="19bacf2ced"><path d="M 5.550781 32.339844 L 156 32.339844 L 156 332.339844 L 5.550781 332.339844 Z M 5.550781 32.339844 " clip-rule="nonzero"/></clipPath></defs><g clip-path="url(#1671268559)"><path fill="#29acff" d="M 219.03125 32.308594 L 219.03125 93.660156 L 307.699219 182.300781 L 219.03125 270.9375 L 219.03125 332.292969 L 369.070312 182.300781 Z M 219.03125 32.308594 " fill-opacity="1" fill-rule="nonzero"/></g><g clip-path="url(#19bacf2ced)"><path fill="#29acff" d="M 155.898438 93.660156 L 155.898438 32.308594 L 5.859375 182.300781 L 155.898438 332.292969 L 155.898438 270.9375 L 67.230469 182.300781 Z M 155.898438 93.660156 " fill-opacity="1" fill-rule="nonzero"/></g><path fill="#29acff" d="M 114.1875 182.300781 L 187.460938 109.046875 L 260.738281 182.300781 L 187.460938 255.550781 Z M 114.1875 182.300781 " fill-opacity="1" fill-rule="nonzero"/></svg>